<?xml version="1.0" encoding="iso-8859-1"?>
<!-- Uploaded to: SVG Repo, www.svgrepo.com, Generator: SVG Repo Mixer Tools -->
<svg height="800px" width="800px" version="1.1" id="Layer_1" xmlns="http://www.w3.org/2000/svg" xmlns:xlink="http://www.w3.org/1999/xlink" 
	 viewBox="0 0 512.001 512.001" xml:space="preserve">
<path style="fill:#FFD92D;" d="M80.058,499.256c-16.993-16.993-16.993-44.55,0-61.543l262.521-262.521
	c20.149-20.149,20.149-52.934,0-73.082s-52.934-20.149-73.082,0c-16.993,16.993-44.55,16.993-61.543,0s-16.993-44.55,0-61.543
	c54.084-54.084,142.079-54.09,196.169,0s54.084,142.086,0,196.169l-262.521,262.52C124.608,516.25,97.051,516.25,80.058,499.256z"/>
<g>
	<path style="fill:#956EC4;" d="M435.783,89.595H322.228c7.445,2.443,14.443,6.605,20.351,12.513
		c9.926,9.926,14.952,22.918,15.097,35.956h87.004C444.612,121.618,441.65,105.181,435.783,89.595z"/>
	<path style="fill:#956EC4;" d="M289.847,89.595h-90.635c2.093,4.531,5.007,8.778,8.742,12.513c16.993,16.993,44.55,16.993,61.543,0
		C275.405,96.201,282.402,92.04,289.847,89.595z"/>
	<path style="fill:#956EC4;" d="M410.622,229.763c12.657-14.508,21.793-31.037,27.394-48.469h-101.54l-48.469,48.469H410.622z"/>
	<polygon style="fill:#956EC4;" points="319.395,321.461 367.864,272.992 244.779,272.992 196.309,321.461 	"/>
	<polygon style="fill:#956EC4;" points="227.696,413.161 276.166,364.692 153.08,364.692 104.611,413.161 	"/>
	<path style="fill:#956EC4;" d="M69.025,456.391c-4.246,14.729-0.572,31.26,11.033,42.866c2.137,2.137,4.441,4.003,6.87,5.603
		h47.804c2.429-1.599,4.733-3.466,6.87-5.603l42.866-42.866H69.025z"/>
	<path style="fill:#956EC4;" d="M404.122,40.565c-54.09-54.09-142.086-54.084-196.169,0c-1.82,1.82-3.431,3.765-4.861,5.801h206.5
		C407.832,44.394,406.013,42.457,404.122,40.565z"/>
</g>
</svg>