<svg xmlns="http://www.w3.org/2000/svg"  viewBox="0 0 64 64" width="256px" height="256px"><linearGradient id="ZLcZ3wzhtiqM0jIZNKaS7a" x1="31.994" x2="31.994" y1="21.041" y2="42.003" gradientUnits="userSpaceOnUse"><stop offset="0" stop-color="#6dc7ff"/><stop offset="1" stop-color="#e6abff"/></linearGradient><path fill="url(#ZLcZ3wzhtiqM0jIZNKaS7a)" d="M47.141,28.576c-3.342-1.3-5.804,2.552-5.804,2.552s0.79-4.503-2.552-5.804 c-1.344-0.523-2.779-0.337-3.927,0.352l0.149-1.105c-1.109-2.85-4.318-4.261-7.168-3.152c-4.128,1.606-3.152,7.168-3.152,7.168 s-3.04-4.759-7.168-3.152c-2.85,1.109-4.261,4.318-3.152,7.168c2.409,6.192,15.54,9.401,15.54,9.401s2.068-3.096,3.686-6.933 l0.008-0.058c1.33,3.702,3.511,6.979,3.511,6.979s10.632-2.598,12.583-7.612C50.591,32.072,49.449,29.474,47.141,28.576z"/><linearGradient id="ZLcZ3wzhtiqM0jIZNKaS7b" x1="32" x2="32" y1="141" y2="95" gradientTransform="matrix(1 0 0 -1 0 150)" gradientUnits="userSpaceOnUse"><stop offset="0" stop-color="#1a6dff"/><stop offset="1" stop-color="#c822ff"/></linearGradient><path fill="url(#ZLcZ3wzhtiqM0jIZNKaS7b)" d="M46.694,11C50.171,11,53,13.829,53,17.306v29.389C53,50.171,50.171,53,46.694,53H17.306 C13.829,53,11,50.171,11,46.694V17.306C11,13.829,13.829,11,17.306,11H46.694 M46.694,9H17.306C12.718,9,9,12.718,9,17.306v29.389 C9,51.282,12.718,55,17.306,55h29.389C51.282,55,55,51.282,55,46.694V17.306C55,12.718,51.282,9,46.694,9L46.694,9z"/><linearGradient id="ZLcZ3wzhtiqM0jIZNKaS7c" x1="31.995" x2="31.995" y1="20.042" y2="43.003" gradientUnits="userSpaceOnUse"><stop offset="0" stop-color="#1a6dff"/><stop offset="1" stop-color="#c822ff"/></linearGradient><path fill="url(#ZLcZ3wzhtiqM0jIZNKaS7c)" d="M50.535,30.547c-0.59-1.34-1.666-2.372-3.031-2.903c-2.02-0.785-3.854-0.062-5.19,0.978 c-0.283-1.669-1.144-3.442-3.166-4.229c-1.043-0.407-2.16-0.478-3.228-0.227c-1.322-3.33-5.098-4.98-8.443-3.679 c-2.564,0.998-3.558,3.338-3.823,5.445c-1.619-1.373-3.936-2.426-6.497-1.429c-3.359,1.307-5.028,5.104-3.722,8.463 c2.568,6.601,15.679,9.874,16.235,10.009c0.079,0.02,0.158,0.029,0.237,0.029c0.329,0,0.644-0.163,0.831-0.444 c0.07-0.105,1.435-2.158,2.82-4.999c1.228,2.72,2.601,4.807,2.722,4.988c0.188,0.282,0.502,0.444,0.831,0.444 c0.079,0,0.158-0.009,0.237-0.029c0.455-0.111,11.162-2.784,13.276-8.22C51.156,33.378,51.124,31.888,50.535,30.547z M29.458,40.848c-2.666-0.747-12.267-3.743-14.16-8.608c-0.906-2.332,0.252-4.967,2.583-5.874 c3.306-1.288,5.856,2.594,5.963,2.758c0.255,0.401,0.76,0.563,1.203,0.394c0.443-0.171,0.705-0.633,0.625-1.102 c-0.033-0.195-0.775-4.779,2.529-6.065c2.335-0.906,4.968,0.252,5.874,2.583c0.005,0.012,0.015,0.019,0.02,0.031 c-0.92,0.619-1.635,1.494-2.045,2.55c-0.841,2.159-0.38,4.91,0.488,7.47C31.414,37.584,30.096,39.822,29.458,40.848z M48.762,34.018c-1.338,3.439-7.995,5.928-11.202,6.822c-1.76-2.826-4.984-9.16-3.646-12.6v0c0.338-0.867,0.992-1.551,1.844-1.925 c0.449-0.197,0.925-0.296,1.401-0.296c0.427,0,0.854,0.08,1.265,0.239c2.529,0.984,1.955,4.55,1.93,4.698 c-0.082,0.468,0.178,0.929,0.621,1.103c0.441,0.174,0.947,0.011,1.205-0.389c0.084-0.129,2.064-3.147,4.601-2.161 c0.866,0.338,1.55,0.993,1.925,1.844C49.078,32.204,49.099,33.15,48.762,34.018z"/></svg>