<svg xmlns="http://www.w3.org/2000/svg" viewBox="0 0 24 24" id="candy">
  <circle cx="14" cy="10" r="8.5" fill="#d51c29"></circle>
  <path d="M14.008 1.5c-4.69 0-8.492 3.805-8.492 8.499s3.802 8.499 8.492 8.499S22.5 14.693 22.5 9.999 18.698 1.5 14.008 1.5zm-1.016 13.494C9.683 14.994 7 12.309 7 8.997S9.683 3 12.992 3s5.992 2.685 5.992 5.997-2.683 5.997-5.992 5.997z" opacity=".1"></path>
  <circle cx="11.992" cy="8.005" r="3.992" fill="#fff" opacity=".2"></circle>
  <path fill="#303c42" d="M14 1c-4.962 0-9 4.038-9 9 0 2.302.876 4.397 2.302 5.991l-6.156 6.156a.5.5 0 0 0 .708.707l6.156-6.156A8.95 8.95 0 0 0 14.001 19c4.962 0 9-4.038 9-9S18.962 1 14 1zm0 17a7.974 7.974 0 0 1-5.622-2.316c-.01-.012-.014-.026-.025-.037s-.025-.015-.037-.025A7.974 7.974 0 0 1 6 10c0-4.411 3.589-8 8-8a7.96 7.96 0 0 1 5.43 2.142.49.49 0 0 0 .096.174 7.298 7.298 0 0 1 1.731 4.721 5.747 5.747 0 0 1-5.74 5.741 4.499 4.499 0 0 1-4.493-4.493 3.498 3.498 0 0 1 3.494-3.494 2.698 2.698 0 0 1 2.695 2.695 2.058 2.058 0 0 1-2.056 2.056 1.547 1.547 0 0 1-1.545-1.545.5.5 0 0 0-1 0 2.548 2.548 0 0 0 2.545 2.545 3.06 3.06 0 0 0 3.056-3.056 3.7 3.7 0 0 0-3.695-3.695 4.5 4.5 0 0 0-4.494 4.494 5.499 5.499 0 0 0 5.493 5.493c2.969 0 5.49-1.931 6.387-4.602C21.332 15.03 18.011 18 14 18z"></path>
  <linearGradient id="a" x1="4.148" x2="20.436" y1="9.883" y2="17.477" gradientUnits="userSpaceOnUse">
    <stop offset="0" stop-color="#fff" stop-opacity=".2"></stop>
    <stop offset="1" stop-color="#fff" stop-opacity="0"></stop>
  </linearGradient>
  <path fill="url(#a)" d="M22.543 12.813A8.945 8.945 0 0 0 23 9.999c0-2.25-.835-4.305-2.205-5.885a.488.488 0 0 0-.114-.125C19.034 2.159 16.656 1 14.007 1c-.566 0-1.117.059-1.654.159a.47.47 0 0 0-.206.037 9.02 9.02 0 0 0-6.65 5.921c-.007.02-.017.038-.021.058a8.947 8.947 0 0 0-.46 2.824c0 2.297.872 4.389 2.292 5.981l-6.161 6.166a.5.5 0 0 0 .708.707l6.16-6.165a8.941 8.941 0 0 0 5.994 2.31c3.956 0 7.317-2.573 8.516-6.133.005-.017.015-.034.018-.052z"></path>
</svg>
